PathFileType	4	(X/Y/Z)	C:/Users/CLatella/Desktop/xsens/3Novembre/Meri/Meri-020.trc	
DataRate	CameraRate	NumFrames	NumMarkers	Units	OrigDataRate	OrigDataStartFrame	OrigNumFrames	
240.00	240.00	4	64	mm	240.00	774	1238	
Frame#	Time	pHipOrigin			pRightASI			pLeftASI			pRightCSI			pLeftCSI			pRightIschialTub			pLeftIschialTub			pSacrum			pL5SpinalProcess			pL3SpinalProcess			pT12SpinalProcess			pPX			pIJ			pT4SpinalProcess			pT8SpinalProcess			pC7SpinalProcess			pTopOfHead			pRightAuricularis			pLeftAuricularis			pBackOfHead			pRightAcromion			pLeftAcromion			pRightArmLatEpicondyle			pRightArmMedEpicondyle			pLeftArmLatEpicondyle			pLeftArmMedEpicondyle			pRightUlnarStyloid			pRightRadialStyloid			pRightOlecranon			pLeftUlnarStyloid			pLeftRadialStyloid			pLeftOlecranon			pRightTopOfHand			pRightPinky			pRightBallHand			pLeftTopOfHand			pLeftPinky			pLeftBallHand			pRightGreaterTrochanter			pRightKneeLatEpicondyle			pRightKneeMedEpicondyle			pRightPatella			pLeftGreaterTrochanter			pLeftKneeLatEpicondyle			pLeftKneeMedEpicondyle			pLeftPatella			pRightLatMalleolus			pRightMedMalleolus			pRightTibialTub			pLeftLatMalleolus			pLeftMedMalleolus			pLeftTibialTub			pRightHeelFoot			pRightFirstMetatarsal			pRightFifthMetatarsal			pRightPivotFoot			pRightHeelCenter			pRightToe			pLeftHeelFoot			pLeftFirstMetatarsal			pLeftFifthMetatarsal			pLeftPivotFoot			pLeftHeelCenter			pLeftToe			
		X1	Y1	Z1	X2	Y2	Z2	X3	Y3	Z3	X4	Y4	Z4	X5	Y5	Z5	X6	Y6	Z6	X7	Y7	Z7	X8	Y8	Z8	X9	Y9	Z9	X10	Y10	Z10	X11	Y11	Z11	X12	Y12	Z12	X13	Y13	Z13	X14	Y14	Z14	X15	Y15	Z15	X16	Y16	Z16	X17	Y17	Z17	X18	Y18	Z18	X19	Y19	Z19	X20	Y20	Z20	X21	Y21	Z21	X22	Y22	Z22	X23	Y23	Z23	X24	Y24	Z24	X25	Y25	Z25	X26	Y26	Z26	X27	Y27	Z27	X28	Y28	Z28	X29	Y29	Z29	X30	Y30	Z30	X31	Y31	Z31	X32	Y32	Z32	X33	Y33	Z33	X34	Y34	Z34	X35	Y35	Z35	X36	Y36	Z36	X37	Y37	Z37	X38	Y38	Z38	X39	Y39	Z39	X40	Y40	Z40	X41	Y41	Z41	X42	Y42	Z42	X43	Y43	Z43	X44	Y44	Z44	X45	Y45	Z45	X46	Y46	Z46	X47	Y47	Z47	X48	Y48	Z48	X49	Y49	Z49	X50	Y50	Z50	X51	Y51	Z51	X52	Y52	Z52	X53	Y53	Z53	X54	Y54	Z54	X55	Y55	Z55	X56	Y56	Z56	X57	Y57	Z57	X58	Y58	Z58	X59	Y59	Z59	X60	Y60	Z60	X61	Y61	Z61	X62	Y62	Z62	X63	Y63	Z63	X64	Y64	Z64	

774	3.221	148.92934	79.01041	930.04240	234.21839	-38.67642	983.58665	231.30510	200.81603	978.86511	222.31409	-16.52538	1062.14499	219.95332	181.42759	1058.27735	85.03790	28.17854	902.01455	83.83240	127.18013	900.10585	91.26631	79.16109	972.83762	148.12568	80.81866	1032.56004	194.13555	80.41682	1127.49308	241.45138	79.01041	1207.80944	401.63205	80.21591	1194.90056	466.98014	76.54918	1284.20794	345.77727	74.08795	1346.54228	295.19654	76.69987	1283.15313	374.30741	73.28429	1383.46068	589.89080	72.83223	1515.51304	510.17718	7.33345	1461.16513	513.59276	137.72825	1455.84084	471.04870	74.84139	1489.39390	395.45387	-95.88739	1346.19067	370.94206	251.64790	1333.58316	388.12042	-114.32148	1031.40477	365.81869	-57.66303	1028.29057	361.04692	248.28255	1018.64657	336.28397	192.47799	1018.89772	406.85588	-85.23882	801.40563	436.79244	-49.57614	808.58839	362.75471	-105.98345	1027.13530	412.73269	220.25470	797.18638	429.91105	177.20834	805.47418	340.90504	244.06330	1015.33145	564.32417	-74.79116	709.28542	492.44630	-104.92863	736.15800	438.80160	-80.96934	773.07640	565.22830	241.60207	717.87460	496.21349	259.93570	759.06248	439.95687	225.37807	780.35962	145.21239	-69.81848	905.12876	147.72384	-54.34791	524.34179	155.05730	18.88615	521.62942	192.62868	-19.23775	525.89890	138.63237	228.84388	906.08311	134.16198	234.57000	525.04500	145.76491	162.13960	518.11338	181.07598	202.22244	523.83950	155.91119	-71.22489	98.54954	164.09854	-8.99101	95.08373	218.54691	-25.66708	490.73851	147.77407	256.67081	97.49472	151.54126	194.08532	93.37594	207.64719	202.77496	489.03072	123.11158	-31.69458	2.91329	270.83542	-28.22877	6.27864	257.72562	-93.62708	5.52520	283.04110	-63.79098	6.37910	161.83823	-39.48009	7.98643	358.38478	-78.90995	6.98185	108.89673	218.94874	2.96352	256.21875	206.79329	0.90412	246.92636	272.89481	0.30137	270.43359	241.60207	0.35160	148.17591	224.47394	6.63024	346.53071	252.25065	-1.65756 
775	3.225	148.72843	78.80949	930.04240	233.86679	-38.92757	983.73733	230.95350	200.56488	979.06603	221.81180	-16.72630	1062.24545	219.40080	181.17644	1058.42804	84.88721	27.97762	901.86387	83.68172	126.92899	899.95516	90.91471	78.96018	972.68693	147.62339	80.61774	1032.50981	193.38212	80.16568	1127.59354	240.44680	78.75926	1208.01036	400.72793	79.86430	1195.60377	465.77464	76.19758	1285.16229	344.32062	73.78658	1347.14503	293.99105	76.39849	1283.55496	372.80054	72.98291	1384.11366	588.03232	72.43039	1516.71854	508.41916	6.98185	1462.16971	511.88497	137.37665	1456.89565	469.24045	74.48979	1490.34825	393.99723	-96.23900	1346.74319	369.58587	251.34652	1334.18591	387.86927	-113.96988	1031.85683	365.56754	-57.26120	1028.84309	361.14738	247.67980	1019.24932	336.38442	191.92547	1019.45024	406.80565	-84.98767	801.90792	436.89289	-49.42546	809.09068	362.45334	-105.58161	1027.58736	412.88337	220.15424	797.73890	430.16219	177.10788	806.02670	340.95527	243.46055	1015.93420	563.67120	-74.89162	708.83336	491.94401	-104.87840	736.25846	438.55046	-80.81866	773.47823	565.12784	241.60207	717.87460	496.26372	259.88547	759.31362	440.05733	225.32784	780.86192	144.96124	-70.01939	905.07853	147.57316	-54.39814	524.29156	154.90661	18.83592	521.62942	192.47799	-19.33821	525.84867	138.43146	228.64296	906.08311	134.01129	234.46954	525.04500	145.66445	162.03914	518.06315	180.92529	202.12198	523.83950	155.91119	-71.22489	98.54954	164.14877	-8.99101	95.03350	218.39622	-25.71731	490.73851	147.77407	256.62058	97.49472	151.54126	194.03509	93.37594	207.54673	202.67450	489.08095	123.16180	-31.64435	2.86306	270.88565	-28.27900	6.27864	257.72562	-93.67731	5.47497	283.04110	-63.84121	6.32887	161.83823	-39.48009	7.98643	358.38478	-79.01041	6.93162	108.89673	218.89851	2.96352	256.21875	206.79329	0.85390	246.92636	272.89481	0.30137	270.43359	241.55184	0.35160	148.17591	224.47394	6.63024	346.53071	252.20042	-1.65756 
776	3.229	148.47728	78.60857	929.99218	233.46495	-39.12849	983.88802	230.65212	200.36396	979.21671	221.25928	-16.97744	1062.39614	218.89851	180.97552	1058.57873	84.68630	27.77670	901.71318	83.53103	126.72807	899.80447	90.56311	78.70903	972.53624	147.17132	80.41682	1032.50981	192.62868	79.96476	1127.69400	239.49245	78.50812	1208.21128	399.77357	79.56293	1196.35720	464.51891	75.84597	1286.11664	342.91421	73.48520	1347.64732	292.78555	76.14735	1283.90656	371.24343	72.73177	1384.76664	586.17384	72.02856	1517.87381	506.66114	6.63024	1463.17429	510.17718	137.02504	1457.90024	467.43220	74.13818	1491.25237	392.54058	-96.54037	1347.24548	368.22969	251.04515	1334.78866	387.61813	-113.56804	1032.30889	365.36663	-56.85936	1029.34538	361.24784	247.12728	1019.85207	336.48488	191.32272	1019.95253	406.80565	-84.73653	802.41021	436.94312	-49.27477	809.64320	362.20219	-105.12955	1028.08965	413.08429	220.00355	798.29142	430.46357	177.05765	806.52900	341.00550	242.90803	1016.48672	563.01822	-74.99208	708.43152	491.44172	-104.82818	736.35891	438.34954	-80.71820	773.93030	565.02738	241.60207	717.92483	496.26372	259.83524	759.61500	440.15779	225.22738	781.31398	144.71010	-70.22031	905.02830	147.42247	-54.49860	524.24134	154.80615	18.73546	521.62942	192.32730	-19.38844	525.84867	138.18031	228.44204	906.08311	133.91084	234.36908	525.04500	145.51376	161.93869	518.06315	180.82484	202.02152	523.83950	155.91119	-71.22489	98.49931	164.14877	-8.99101	95.03350	218.24553	-25.81777	490.73851	147.77407	256.62058	97.54495	151.54126	193.98487	93.37594	207.44627	202.62427	489.08095	123.16180	-31.64435	2.86306	270.88565	-28.22877	6.22841	257.77585	-93.62708	5.42475	283.09133	-63.74075	6.27864	161.88846	-39.48009	7.93620	358.43501	-78.90995	6.88139	108.89673	218.89851	2.96352	256.16852	206.74306	0.85390	246.92636	272.84459	0.30137	270.43359	241.50161	0.35160	148.12568	224.47394	6.63024	346.53071	252.15019	-1.65756 
777	3.233	148.22614	78.40766	929.99218	233.11335	-39.32940	984.08894	230.30052	200.16305	979.41763	220.70676	-17.17836	1062.54683	218.34599	180.77461	1058.72941	84.53561	27.57579	901.56249	83.38034	126.57738	899.60356	90.26173	78.50812	972.38555	146.66903	80.21591	1032.45958	191.92547	79.76384	1127.79445	238.53810	78.30720	1208.46242	398.86945	79.26155	1197.06041	463.31341	75.49437	1287.07100	341.50779	73.23406	1348.19984	291.58005	75.89620	1284.30839	369.73656	72.43039	1385.41962	584.36559	71.62673	1519.02908	504.95335	6.27864	1464.12865	508.51962	136.67344	1458.95505	465.67418	73.83681	1492.15650	391.13417	-96.84175	1347.74777	366.92373	250.79400	1335.39141	387.41721	-113.16621	1032.81119	365.16571	-56.45753	1029.84767	361.34830	246.52453	1020.40459	336.58534	190.77020	1020.50505	406.80565	-84.48538	802.91250	437.04358	-49.12408	810.14549	361.90082	-104.67749	1028.54171	413.23498	219.90309	798.89417	430.71471	176.95719	807.03129	341.05573	242.30528	1017.08947	562.36524	-75.09254	707.97946	490.93943	-104.77795	736.40914	438.14862	-80.51728	774.33213	564.87669	241.60207	717.87460	496.26372	259.78501	759.86614	440.30847	225.12692	781.81627	144.50918	-70.42123	904.97807	147.27178	-54.54883	524.19111	154.65546	18.68523	521.62942	192.17662	-19.48890	525.84867	137.97940	228.24113	906.08311	133.81038	234.31885	525.04500	145.41331	161.83823	518.06315	180.67415	201.92107	523.83950	155.96142	-71.22489	98.44908	164.19900	-8.99101	95.03350	218.14507	-25.86800	490.73851	147.77407	256.57035	97.54495	151.54126	193.98487	93.37594	207.34581	202.52382	489.08095	123.21203	-31.64435	2.81283	270.93588	-28.17854	6.22841	257.82608	-93.57685	5.42475	283.09133	-63.74075	6.27864	161.88846	-39.48009	7.93620	358.48524	-78.80949	6.83116	108.89673	218.89851	3.01375	256.16852	206.69283	0.85390	246.92636	272.79436	0.30137	270.43359	241.45138	0.30137	148.12568	224.42371	6.63024	346.53071	252.09996	-1.65756 
